<mxfile host="app.diagrams.net" modified="2024-01-30T07:40:16.182Z" agent="Mozilla/5.0 (Macintosh; Intel Mac OS X 10_15_7) AppleWebKit/537.36 (KHTML, like Gecko) Chrome/120.0.0.0 Safari/537.36" etag="zxkx-7xfgCTXXwPhkKTM" version="23.0.2" type="github">
  <diagram name="Page-1" id="e7e014a7-5840-1c2e-5031-d8a46d1fe8dd">
    <mxGraphModel dx="1193" dy="769" grid="1" gridSize="10" guides="1" tooltips="1" connect="1" arrows="1" fold="1" page="1" pageScale="1" pageWidth="1169" pageHeight="826" background="none" math="0" shadow="0">
      <root>
        <mxCell id="0" />
        <mxCell id="1" parent="0" />
        <mxCell id="2" value="Hub Cluster" style="swimlane;whiteSpace=wrap" parent="1" vertex="1">
          <mxGeometry x="164.5" y="128" width="275.5" height="592" as="geometry" />
        </mxCell>
        <mxCell id="5" value="" style="ellipse;shape=startState;fillColor=#000000;strokeColor=#ff0000;" parent="2" vertex="1">
          <mxGeometry x="125" y="38" width="30" height="30" as="geometry" />
        </mxCell>
        <mxCell id="c4lP9vknFGn8GkWbFKHM-42" value="Create/Up Wireguard Device&amp;nbsp;" style="whiteSpace=wrap;html=1;" vertex="1" parent="2">
          <mxGeometry x="89.5" y="108" width="105" height="40" as="geometry" />
        </mxCell>
        <mxCell id="c4lP9vknFGn8GkWbFKHM-43" value="" style="html=1;rounded=1;curved=0;sourcePerimeterSpacing=0;targetPerimeterSpacing=0;startSize=6;endSize=6;noEdgeStyle=1;orthogonal=1;exitX=0.5;exitY=1;exitDx=0;exitDy=0;" edge="1" parent="2" source="5" target="c4lP9vknFGn8GkWbFKHM-42">
          <mxGeometry relative="1" as="geometry">
            <Array as="points">
              <mxPoint x="140" y="70" />
              <mxPoint x="140" y="96" />
            </Array>
            <mxPoint x="140.5" y="68" as="sourcePoint" />
          </mxGeometry>
        </mxCell>
        <mxCell id="c4lP9vknFGn8GkWbFKHM-44" value="" style="html=1;rounded=1;curved=0;sourcePerimeterSpacing=0;targetPerimeterSpacing=0;startSize=6;endSize=6;noEdgeStyle=1;orthogonal=1;" edge="1" parent="2" source="c4lP9vknFGn8GkWbFKHM-42" target="c4lP9vknFGn8GkWbFKHM-45">
          <mxGeometry relative="1" as="geometry">
            <mxPoint x="795" y="1568" as="sourcePoint" />
            <Array as="points">
              <mxPoint x="140" y="160" />
              <mxPoint x="140" y="186" />
            </Array>
          </mxGeometry>
        </mxCell>
        <mxCell id="c4lP9vknFGn8GkWbFKHM-45" value="Generate &lt;br&gt;Pub/Pri keys" style="whiteSpace=wrap;html=1;" vertex="1" parent="2">
          <mxGeometry x="90" y="198" width="100" height="40" as="geometry" />
        </mxCell>
        <mxCell id="c4lP9vknFGn8GkWbFKHM-46" value="" style="html=1;rounded=1;curved=0;sourcePerimeterSpacing=0;targetPerimeterSpacing=0;startSize=6;endSize=6;noEdgeStyle=1;orthogonal=1;" edge="1" parent="2" source="c4lP9vknFGn8GkWbFKHM-45" target="c4lP9vknFGn8GkWbFKHM-47">
          <mxGeometry relative="1" as="geometry">
            <mxPoint x="735" y="1538" as="sourcePoint" />
            <Array as="points">
              <mxPoint x="117.5" y="250" />
              <mxPoint x="75" y="276" />
            </Array>
          </mxGeometry>
        </mxCell>
        <mxCell id="c4lP9vknFGn8GkWbFKHM-47" value="Config Device with Private key" style="whiteSpace=wrap;html=1;" vertex="1" parent="2">
          <mxGeometry x="25" y="288" width="100" height="40" as="geometry" />
        </mxCell>
        <mxCell id="c4lP9vknFGn8GkWbFKHM-48" value="" style="html=1;rounded=1;curved=0;sourcePerimeterSpacing=0;targetPerimeterSpacing=0;startSize=6;endSize=6;noEdgeStyle=1;orthogonal=1;" edge="1" parent="2" source="c4lP9vknFGn8GkWbFKHM-45" target="c4lP9vknFGn8GkWbFKHM-49">
          <mxGeometry relative="1" as="geometry">
            <mxPoint x="675" y="1508" as="sourcePoint" />
            <Array as="points">
              <mxPoint x="162.5" y="250" />
              <mxPoint x="205" y="276" />
            </Array>
          </mxGeometry>
        </mxCell>
        <mxCell id="c4lP9vknFGn8GkWbFKHM-54" value="" style="edgeStyle=orthogonalEdgeStyle;rounded=0;orthogonalLoop=1;jettySize=auto;html=1;" edge="1" parent="2" source="c4lP9vknFGn8GkWbFKHM-49" target="c4lP9vknFGn8GkWbFKHM-53">
          <mxGeometry relative="1" as="geometry" />
        </mxCell>
        <mxCell id="c4lP9vknFGn8GkWbFKHM-49" value="Create Peer CRD with Public key" style="whiteSpace=wrap;html=1;" vertex="1" parent="2">
          <mxGeometry x="155" y="288" width="100" height="40" as="geometry" />
        </mxCell>
        <mxCell id="c4lP9vknFGn8GkWbFKHM-50" value="" style="html=1;rounded=1;curved=0;sourcePerimeterSpacing=0;targetPerimeterSpacing=0;startSize=6;endSize=6;noEdgeStyle=1;orthogonal=1;" edge="1" parent="2" source="c4lP9vknFGn8GkWbFKHM-47" target="c4lP9vknFGn8GkWbFKHM-51">
          <mxGeometry relative="1" as="geometry">
            <mxPoint x="678" y="1428" as="sourcePoint" />
            <Array as="points">
              <mxPoint x="75" y="340" />
              <mxPoint x="75" y="366" />
            </Array>
          </mxGeometry>
        </mxCell>
        <mxCell id="c4lP9vknFGn8GkWbFKHM-55" value="" style="edgeStyle=orthogonalEdgeStyle;rounded=0;orthogonalLoop=1;jettySize=auto;html=1;" edge="1" parent="2" source="c4lP9vknFGn8GkWbFKHM-51" target="c4lP9vknFGn8GkWbFKHM-53">
          <mxGeometry relative="1" as="geometry" />
        </mxCell>
        <mxCell id="c4lP9vknFGn8GkWbFKHM-57" value="" style="edgeStyle=orthogonalEdgeStyle;rounded=0;orthogonalLoop=1;jettySize=auto;html=1;" edge="1" parent="2" source="c4lP9vknFGn8GkWbFKHM-51" target="c4lP9vknFGn8GkWbFKHM-56">
          <mxGeometry relative="1" as="geometry" />
        </mxCell>
        <mxCell id="c4lP9vknFGn8GkWbFKHM-51" value="Watch Peer Update" style="whiteSpace=wrap;html=1;" vertex="1" parent="2">
          <mxGeometry x="25" y="378" width="100" height="40" as="geometry" />
        </mxCell>
        <mxCell id="c4lP9vknFGn8GkWbFKHM-53" value="Hub K8S&amp;nbsp;&lt;br&gt;API-Server" style="rounded=1;whiteSpace=wrap;html=1;fillColor=#fff2cc;strokeColor=#d6b656;" vertex="1" parent="2">
          <mxGeometry x="145.5" y="368" width="120" height="60" as="geometry" />
        </mxCell>
        <mxCell id="c4lP9vknFGn8GkWbFKHM-59" value="NO" style="edgeStyle=orthogonalEdgeStyle;rounded=0;orthogonalLoop=1;jettySize=auto;html=1;" edge="1" parent="2" source="c4lP9vknFGn8GkWbFKHM-56" target="c4lP9vknFGn8GkWbFKHM-58">
          <mxGeometry relative="1" as="geometry" />
        </mxCell>
        <mxCell id="c4lP9vknFGn8GkWbFKHM-56" value="Hub Peer&lt;br&gt;ï¼Ÿ" style="rhombus;whiteSpace=wrap;html=1;" vertex="1" parent="2">
          <mxGeometry x="35" y="457" width="80" height="59" as="geometry" />
        </mxCell>
        <mxCell id="c4lP9vknFGn8GkWbFKHM-58" value="Add Connection" style="whiteSpace=wrap;html=1;" vertex="1" parent="2">
          <mxGeometry x="27.5" y="548" width="95" height="38" as="geometry" />
        </mxCell>
        <mxCell id="c4lP9vknFGn8GkWbFKHM-81" value="" style="endArrow=classic;html=1;rounded=0;entryX=0;entryY=0.5;entryDx=0;entryDy=0;" edge="1" parent="2" target="c4lP9vknFGn8GkWbFKHM-74">
          <mxGeometry width="50" height="50" relative="1" as="geometry">
            <mxPoint x="265.5" y="402" as="sourcePoint" />
            <mxPoint x="315.5" y="352" as="targetPoint" />
          </mxGeometry>
        </mxCell>
        <mxCell id="3" value="Cluster" style="swimlane;whiteSpace=wrap" parent="1" vertex="1">
          <mxGeometry x="440" y="128" width="280" height="592" as="geometry" />
        </mxCell>
        <mxCell id="c4lP9vknFGn8GkWbFKHM-61" value="" style="ellipse;shape=startState;fillColor=#000000;strokeColor=#ff0000;" vertex="1" parent="3">
          <mxGeometry x="119.75" y="32" width="30" height="30" as="geometry" />
        </mxCell>
        <mxCell id="c4lP9vknFGn8GkWbFKHM-62" value="Create/Up Wireguard Device&amp;nbsp;" style="whiteSpace=wrap;html=1;" vertex="1" parent="3">
          <mxGeometry x="84.25" y="102" width="105" height="40" as="geometry" />
        </mxCell>
        <mxCell id="c4lP9vknFGn8GkWbFKHM-63" value="" style="html=1;rounded=1;curved=0;sourcePerimeterSpacing=0;targetPerimeterSpacing=0;startSize=6;endSize=6;noEdgeStyle=1;orthogonal=1;exitX=0.5;exitY=1;exitDx=0;exitDy=0;" edge="1" parent="3" source="c4lP9vknFGn8GkWbFKHM-61" target="c4lP9vknFGn8GkWbFKHM-62">
          <mxGeometry relative="1" as="geometry">
            <Array as="points">
              <mxPoint x="134.75" y="64" />
              <mxPoint x="134.75" y="90" />
            </Array>
            <mxPoint x="135.25" y="62" as="sourcePoint" />
          </mxGeometry>
        </mxCell>
        <mxCell id="c4lP9vknFGn8GkWbFKHM-64" value="" style="html=1;rounded=1;curved=0;sourcePerimeterSpacing=0;targetPerimeterSpacing=0;startSize=6;endSize=6;noEdgeStyle=1;orthogonal=1;" edge="1" parent="3" source="c4lP9vknFGn8GkWbFKHM-62" target="c4lP9vknFGn8GkWbFKHM-65">
          <mxGeometry relative="1" as="geometry">
            <mxPoint x="789.75" y="1562" as="sourcePoint" />
            <Array as="points">
              <mxPoint x="134.75" y="154" />
              <mxPoint x="134.75" y="180" />
            </Array>
          </mxGeometry>
        </mxCell>
        <mxCell id="c4lP9vknFGn8GkWbFKHM-65" value="Generate &lt;br&gt;Pub/Pri keys" style="whiteSpace=wrap;html=1;" vertex="1" parent="3">
          <mxGeometry x="84.75" y="192" width="100" height="40" as="geometry" />
        </mxCell>
        <mxCell id="c4lP9vknFGn8GkWbFKHM-66" value="" style="html=1;rounded=1;curved=0;sourcePerimeterSpacing=0;targetPerimeterSpacing=0;startSize=6;endSize=6;noEdgeStyle=1;orthogonal=1;" edge="1" parent="3" source="c4lP9vknFGn8GkWbFKHM-65" target="c4lP9vknFGn8GkWbFKHM-67">
          <mxGeometry relative="1" as="geometry">
            <mxPoint x="729.75" y="1532" as="sourcePoint" />
            <Array as="points">
              <mxPoint x="112.25" y="244" />
              <mxPoint x="69.75" y="270" />
            </Array>
          </mxGeometry>
        </mxCell>
        <mxCell id="c4lP9vknFGn8GkWbFKHM-67" value="Create Peer CRD with Public key" style="whiteSpace=wrap;html=1;" vertex="1" parent="3">
          <mxGeometry x="19.75" y="282" width="100" height="40" as="geometry" />
        </mxCell>
        <mxCell id="c4lP9vknFGn8GkWbFKHM-68" value="" style="html=1;rounded=1;curved=0;sourcePerimeterSpacing=0;targetPerimeterSpacing=0;startSize=6;endSize=6;noEdgeStyle=1;orthogonal=1;" edge="1" parent="3" source="c4lP9vknFGn8GkWbFKHM-65" target="c4lP9vknFGn8GkWbFKHM-70">
          <mxGeometry relative="1" as="geometry">
            <mxPoint x="669.75" y="1502" as="sourcePoint" />
            <Array as="points">
              <mxPoint x="157.25" y="244" />
              <mxPoint x="199.75" y="270" />
            </Array>
          </mxGeometry>
        </mxCell>
        <mxCell id="c4lP9vknFGn8GkWbFKHM-79" value="" style="edgeStyle=orthogonalEdgeStyle;rounded=0;orthogonalLoop=1;jettySize=auto;html=1;" edge="1" parent="3" source="c4lP9vknFGn8GkWbFKHM-70" target="c4lP9vknFGn8GkWbFKHM-74">
          <mxGeometry relative="1" as="geometry" />
        </mxCell>
        <mxCell id="c4lP9vknFGn8GkWbFKHM-70" value="Config Device with Private key" style="whiteSpace=wrap;html=1;" vertex="1" parent="3">
          <mxGeometry x="149.75" y="282" width="100" height="40" as="geometry" />
        </mxCell>
        <mxCell id="c4lP9vknFGn8GkWbFKHM-82" value="" style="edgeStyle=orthogonalEdgeStyle;rounded=0;orthogonalLoop=1;jettySize=auto;html=1;" edge="1" parent="3" source="c4lP9vknFGn8GkWbFKHM-74" target="c4lP9vknFGn8GkWbFKHM-77">
          <mxGeometry relative="1" as="geometry" />
        </mxCell>
        <mxCell id="c4lP9vknFGn8GkWbFKHM-74" value="Watch Peer Update" style="whiteSpace=wrap;html=1;" vertex="1" parent="3">
          <mxGeometry x="149.75" y="382" width="100" height="40" as="geometry" />
        </mxCell>
        <mxCell id="c4lP9vknFGn8GkWbFKHM-77" value="Hub Peer&lt;br&gt;ï¼Ÿ" style="rhombus;whiteSpace=wrap;html=1;" vertex="1" parent="3">
          <mxGeometry x="160.25" y="451" width="80" height="59" as="geometry" />
        </mxCell>
        <mxCell id="c4lP9vknFGn8GkWbFKHM-78" value="Add Connection" style="whiteSpace=wrap;html=1;" vertex="1" parent="3">
          <mxGeometry x="152.75" y="542" width="95" height="38" as="geometry" />
        </mxCell>
        <mxCell id="c4lP9vknFGn8GkWbFKHM-76" value="Yes" style="edgeStyle=orthogonalEdgeStyle;rounded=0;orthogonalLoop=1;jettySize=auto;html=1;" edge="1" parent="3" source="c4lP9vknFGn8GkWbFKHM-77" target="c4lP9vknFGn8GkWbFKHM-78">
          <mxGeometry relative="1" as="geometry" />
        </mxCell>
        <mxCell id="c4lP9vknFGn8GkWbFKHM-80" value="" style="curved=1;endArrow=classic;html=1;rounded=0;exitX=0.5;exitY=1;exitDx=0;exitDy=0;entryX=1;entryY=0.5;entryDx=0;entryDy=0;" edge="1" parent="1" source="c4lP9vknFGn8GkWbFKHM-67" target="c4lP9vknFGn8GkWbFKHM-53">
          <mxGeometry width="50" height="50" relative="1" as="geometry">
            <mxPoint x="474.75" y="530" as="sourcePoint" />
            <mxPoint x="524.75" y="480" as="targetPoint" />
            <Array as="points">
              <mxPoint x="500" y="510" />
              <mxPoint x="470" y="520" />
            </Array>
          </mxGeometry>
        </mxCell>
      </root>
    </mxGraphModel>
  </diagram>
</mxfile>
